<svg width="24" height="24" viewBox="0 0 24 24" fill="none" xmlns="http://www.w3.org/2000/svg">
<path d="M20 19.9999H4C3.4863 20.0153 2.98744 19.8265 2.6126 19.4749C2.23776 19.1233 2.01749 18.6376 2 18.1239V5.87492C2.01749 5.36138 2.23779 4.8757 2.61266 4.52426C2.98753 4.17283 3.4864 3.98428 4 3.99992H20C20.5136 3.98428 21.0125 4.17283 21.3873 4.52426C21.7622 4.8757 21.9825 5.36138 22 5.87492V18.1249C21.9823 18.6384 21.7619 19.1239 21.3871 19.4753C21.0123 19.8267 20.5135 20.0153 20 19.9999ZM4 5.99992V17.9889L20 17.9999V6.01092L4 5.99992ZM13.43 15.9999H6C6.07353 15.172 6.46534 14.4048 7.093 13.8599C7.79183 13.1666 8.73081 12.7691 9.715 12.7499C10.699 12.7699 11.638 13.1669 12.337 13.8599C12.9645 14.405 13.3563 15.172 13.43 15.9999ZM18 14.9999H15V12.9999H18V14.9999ZM9.715 11.9999C9.44987 12.0091 9.18569 11.9637 8.93887 11.8665C8.69205 11.7692 8.46787 11.6222 8.28029 11.4346C8.0927 11.2471 7.94571 11.0229 7.84847 10.7761C7.75122 10.5292 7.70579 10.2651 7.715 9.99992C7.70594 9.73484 7.75147 9.47071 7.84877 9.22396C7.94607 8.97721 8.09306 8.7531 8.28062 8.56554C8.46817 8.37799 8.69229 8.23099 8.93904 8.13369C9.18579 8.03639 9.44991 7.99086 9.715 7.99992C9.98009 7.99086 10.2442 8.03639 10.491 8.13369C10.7377 8.23099 10.9618 8.37799 11.1494 8.56554C11.3369 8.7531 11.4839 8.97721 11.5812 9.22396C11.6785 9.47071 11.7241 9.73484 11.715 9.99992C11.7242 10.2651 11.6788 10.5292 11.5815 10.7761C11.4843 11.0229 11.3373 11.2471 11.1497 11.4346C10.9621 11.6222 10.738 11.7692 10.4911 11.8665C10.2443 11.9637 9.98013 12.0091 9.715 11.9999ZM18 10.9999H14V8.99992H18V10.9999Z" fill="#404041"/>
</svg>
