<svg width="24" height="24" viewBox="0 0 24 24" fill="none" xmlns="http://www.w3.org/2000/svg">
<g clip-path="url(#clip0_6640_1787)">
<path d="M13.1457 6.9801C11.7384 6.7051 10.2824 6.82509 8.93908 7.32676C8.87386 7.35259 8.81436 7.39101 8.76399 7.43983C8.71361 7.48865 8.67335 7.54692 8.64549 7.6113C8.58923 7.74132 8.58692 7.88837 8.63908 8.0201C8.69124 8.15182 8.79359 8.25743 8.92362 8.31369C9.05364 8.36995 9.20069 8.37226 9.33242 8.3201C10.4891 7.88276 11.7437 7.77206 12.9591 8.0001C13.0303 8.01885 13.1047 8.02263 13.1775 8.01122C13.2502 7.99981 13.3199 7.97344 13.3819 7.93378C13.444 7.89412 13.4972 7.84203 13.5382 7.78079C13.5791 7.71955 13.6069 7.65049 13.6199 7.57797C13.6328 7.50544 13.6306 7.43103 13.6133 7.35941C13.5961 7.28779 13.5642 7.22052 13.5196 7.16184C13.4751 7.10317 13.4189 7.05435 13.3545 7.01849C13.2902 6.98262 13.2191 6.96047 13.1457 6.95343V6.9801Z" fill="#404041"/>
<path d="M16.9184 12.0467C17.4191 12.0467 17.8251 11.6408 17.8251 11.1401C17.8251 10.6393 17.4191 10.2334 16.9184 10.2334C16.4176 10.2334 16.0117 10.6393 16.0117 11.1401C16.0117 11.6408 16.4176 12.0467 16.9184 12.0467Z" fill="#404041"/>
<path d="M23.6721 12.4199C23.6103 12.3285 23.5268 12.2538 23.4291 12.2026C23.3314 12.1514 23.2224 12.1253 23.1121 12.1266C22.5735 12.0518 22.0793 11.787 21.7188 11.3799C21.025 10.6215 20.4353 9.77407 19.9654 8.8599L21.8854 5.8599C22.002 5.68605 22.0733 5.48592 22.0931 5.27758C22.1129 5.06923 22.0805 4.85924 21.9988 4.66657C21.917 4.49128 21.7933 4.3388 21.6387 4.22254C21.4841 4.10629 21.3032 4.02983 21.1121 3.9999C19.8911 3.83536 18.6484 4.00827 17.5188 4.4999C16.8714 4.78507 16.2622 5.15013 15.7054 5.58657C14.615 5.09762 13.4539 4.78484 12.2654 4.6599C7.53878 4.1999 3.21878 7.26657 2.66544 11.3332C2.4498 11.2362 2.25667 11.0955 2.0983 10.9199C1.93992 10.7443 1.81977 10.5377 1.74544 10.3132C1.69791 10.1593 1.68168 9.99743 1.69771 9.83713C1.71374 9.67683 1.76171 9.52137 1.83878 9.3799C1.90789 9.26113 2.00667 9.16235 2.12544 9.09324C2.20643 9.04421 2.27696 8.97971 2.33301 8.90343C2.38907 8.82714 2.42955 8.74056 2.45215 8.64863C2.47474 8.5567 2.47901 8.46122 2.46471 8.36764C2.4504 8.27406 2.4178 8.18422 2.36878 8.10323C2.31975 8.02225 2.25525 7.95172 2.17897 7.89566C2.10268 7.83961 2.0161 7.79913 1.92417 7.77653C1.83224 7.75394 1.73676 7.74967 1.64318 7.76397C1.54961 7.77828 1.45976 7.81087 1.37878 7.8599C1.05606 8.05798 0.789741 8.33578 0.605445 8.66657C0.4341 8.97701 0.326389 9.3185 0.288613 9.67107C0.250838 10.0236 0.283757 10.3802 0.385445 10.7199C0.510611 11.1315 0.718175 11.5134 0.995521 11.8423C1.27287 12.1713 1.6142 12.4403 1.99878 12.6332L2.61211 12.9399C2.68873 14.5627 3.10192 16.1519 3.82544 17.6066L3.93878 17.8599C4.51701 19.0828 5.25452 20.2238 6.13211 21.2532C6.19458 21.3243 6.27149 21.3813 6.3577 21.4204C6.44391 21.4595 6.53745 21.4798 6.63211 21.4799H9.64544C9.75463 21.4794 9.86202 21.452 9.95816 21.4002C10.0543 21.3485 10.1363 21.2739 10.1968 21.183C10.2574 21.0922 10.2947 20.9879 10.3055 20.8792C10.3163 20.7705 10.3003 20.6609 10.2588 20.5599L9.99878 19.9599L10.7854 20.0466C11.6722 20.1342 12.5654 20.1342 13.4521 20.0466C13.6988 20.4466 13.9654 20.8466 14.2588 21.2399C14.3202 21.3239 14.4004 21.3924 14.493 21.4399C14.5856 21.4873 14.688 21.5125 14.7921 21.5132H17.6854C17.7955 21.5131 17.9038 21.4858 18.0007 21.4337C18.0976 21.3816 18.1801 21.3063 18.2408 21.2145C18.3016 21.1228 18.3386 21.0174 18.3487 20.9078C18.3589 20.7983 18.3417 20.6879 18.2988 20.5866C18.1854 20.3199 18.0721 20.0332 17.9854 19.7866C17.8654 19.4332 17.7721 19.1199 17.6988 18.8199C18.435 18.4224 19.1108 17.9218 19.7054 17.3332C20.3697 17.4135 21.0412 17.4135 21.7054 17.3332C21.8207 17.3158 21.9294 17.2685 22.0206 17.1959C22.1118 17.1234 22.1825 17.0282 22.2254 16.9199L23.7321 13.0466C23.7745 12.9453 23.7912 12.835 23.7807 12.7257C23.7703 12.6164 23.733 12.5113 23.6721 12.4199ZM21.1521 16.0466C20.6288 16.0764 20.1037 16.0518 19.5854 15.9732C18.9953 15.8735 18.4255 15.6776 17.8988 15.3932C17.7428 15.3159 17.5627 15.3026 17.3971 15.3563C17.2315 15.41 17.0934 15.5263 17.0125 15.6804C16.9315 15.8345 16.914 16.0142 16.9638 16.1811C17.0135 16.3479 17.1266 16.4887 17.2788 16.5732C17.5574 16.7193 17.8446 16.8484 18.1388 16.9599C17.7752 17.2703 17.3716 17.5304 16.9388 17.7332L16.2321 18.0532C16.2321 18.0532 16.5588 19.5132 16.7788 20.1599H15.1921C15.0321 19.9332 14.2254 18.5866 14.2254 18.5866L13.7788 18.6466C12.8405 18.7819 11.8898 18.8087 10.9454 18.7266C10.5054 18.6866 9.77211 18.5932 9.19878 18.4932L8.16544 18.3132C8.16544 18.3132 8.58545 19.9332 8.66545 20.1399H6.94545C6.24285 19.2796 5.64738 18.3372 5.17211 17.3332L5.05211 17.0732C4.18591 15.4059 3.82012 13.5237 3.99878 11.6532C4.35878 8.19323 8.07878 5.5799 12.1254 5.9599C13.3026 6.09186 14.4483 6.42563 15.5121 6.94657L15.9254 7.1399L16.2588 6.82657C16.7779 6.36269 17.3646 5.98053 17.9988 5.69324C18.8378 5.32933 19.7544 5.18039 20.6654 5.2599L18.4121 8.78657L18.5788 9.1199C19.161 10.2927 19.9037 11.3786 20.7854 12.3466C21.195 12.7468 21.6799 13.0618 22.2121 13.2732L21.1521 16.0466Z" fill="#404041"/>
</g>
<defs>
<clipPath id="clip0_6640_1787">
<rect width="24" height="24" fill="white"/>
</clipPath>
</defs>
</svg>
