<svg width="24" height="24" viewBox="0 0 24 24" fill="none" xmlns="http://www.w3.org/2000/svg">
<g clip-path="url(#clip0_6640_5666)">
<path d="M9.78791 9.87344C8.8963 9.87344 8.02471 9.60896 7.28345 9.11347C6.54219 8.61797 5.96456 7.91373 5.62366 7.08986C5.28276 6.26599 5.1939 5.3595 5.36834 4.48511C5.54277 3.61073 5.97265 2.80773 6.60358 2.17772C7.23452 1.54772 8.03815 1.11903 8.9128 0.945892C9.78745 0.772755 10.6938 0.862954 11.5172 1.20508C12.3405 1.5472 13.0439 2.12587 13.5383 2.86786C14.0327 3.60985 14.2959 4.48183 14.2946 5.37344C14.2911 6.56699 13.8149 7.71054 12.9703 8.55388C12.1257 9.39723 10.9815 9.87169 9.78791 9.87344V9.87344ZM9.78791 2.20011C9.16029 2.20011 8.54676 2.38622 8.0249 2.73491C7.50305 3.0836 7.09632 3.57921 6.85614 4.15906C6.61595 4.73891 6.55311 5.37696 6.67556 5.99253C6.798 6.6081 7.10023 7.17353 7.54403 7.61733C7.98783 8.06113 8.55326 8.36336 9.16883 8.4858C9.78439 8.60825 10.4224 8.5454 11.0023 8.30522C11.5821 8.06504 12.0778 7.6583 12.4264 7.13645C12.7751 6.6146 12.9612 6.00107 12.9612 5.37344C12.9612 4.53182 12.6269 3.72467 12.0318 3.12956C11.4367 2.53444 10.6295 2.20011 9.78791 2.20011V2.20011Z" fill="#404041"/>
<path d="M10.9454 21.1201C10.7997 20.9743 10.6873 20.7988 10.6159 20.6054C10.5446 20.4121 10.5159 20.2056 10.532 20.0001H2.66536V16.1468C3.61063 15.1381 4.75717 14.3392 6.03076 13.8018C7.30435 13.2643 8.6766 13.0003 10.0587 13.0268H10.5387C10.5081 12.8032 10.5295 12.5757 10.6012 12.3618C10.6729 12.1479 10.7929 11.9534 10.952 11.7934L11.032 11.7201C10.7187 11.7201 10.3654 11.6801 10.0587 11.6801C8.4323 11.6415 6.81764 11.9648 5.33148 12.6266C3.84532 13.2884 2.52478 14.2721 1.46536 15.5068C1.37882 15.6222 1.33203 15.7625 1.33203 15.9068V20.0001C1.33203 20.3537 1.47251 20.6929 1.72256 20.9429C1.9726 21.193 2.31174 21.3334 2.66536 21.3334H11.132L10.9454 21.1201Z" fill="#404041"/>
<path d="M17.9141 10.8601C17.947 10.8533 17.9811 10.8533 18.0141 10.8601C17.981 10.8541 17.9471 10.8541 17.9141 10.8601V10.8601Z" fill="#404041"/>
<path d="M22.4522 15.5467L21.1189 15.1401C21.0236 14.8139 20.894 14.4988 20.7322 14.2001L21.3989 12.9601C21.4206 12.9105 21.4258 12.8552 21.4138 12.8024C21.4018 12.7496 21.3732 12.7021 21.3322 12.6667L20.3655 11.7001C20.329 11.6605 20.2802 11.6344 20.227 11.6259C20.1737 11.6174 20.1192 11.6271 20.0722 11.6534L18.8455 12.3201C18.5435 12.1503 18.2238 12.0139 17.8922 11.9134L17.4855 10.5801C17.4683 10.531 17.4355 10.4888 17.3923 10.46C17.349 10.4311 17.2975 10.4171 17.2455 10.4201H15.8789C15.8264 10.4195 15.7751 10.4361 15.733 10.4674C15.6908 10.4987 15.6601 10.543 15.6455 10.5934L15.2389 11.9267C14.905 12.0239 14.583 12.158 14.2789 12.3267L13.0655 11.6601C13.0195 11.6343 12.9661 11.6249 12.9141 11.6334C12.862 11.6418 12.8143 11.6677 12.7789 11.7067L11.7922 12.6667C11.7556 12.7053 11.7321 12.7543 11.7249 12.8069C11.7177 12.8596 11.7273 12.9132 11.7522 12.9601L12.4189 14.1734C12.2425 14.4739 12.1016 14.7938 11.9989 15.1267L10.6655 15.5267C10.6151 15.5413 10.5708 15.572 10.5395 15.6142C10.5082 15.6563 10.4916 15.7076 10.4922 15.7601V17.1267C10.4961 17.1749 10.5149 17.2206 10.546 17.2576C10.577 17.2947 10.6188 17.3211 10.6655 17.3334L11.9989 17.7401C12.0974 18.0671 12.2315 18.3823 12.3989 18.6801L11.7322 19.9534C11.7068 19.999 11.6969 20.0517 11.7041 20.1034C11.7113 20.1552 11.7352 20.2031 11.7722 20.2401L12.7389 21.2067C12.7766 21.2444 12.8253 21.2692 12.878 21.2776C12.9307 21.2859 12.9846 21.2775 13.0322 21.2534L14.2789 20.5867C14.5756 20.7463 14.8884 20.8737 15.2122 20.9667L15.6122 22.3001C15.6286 22.3494 15.6598 22.3925 15.7015 22.4235C15.7433 22.4545 15.7936 22.4719 15.8455 22.4734H17.2122C17.2644 22.4729 17.3152 22.4559 17.3571 22.4248C17.399 22.3936 17.43 22.3499 17.4455 22.3001L17.8522 20.9334C18.1717 20.8403 18.4801 20.7129 18.7722 20.5534L20.0322 21.2201C20.0785 21.2447 20.1316 21.2534 20.1834 21.245C20.2352 21.2366 20.2828 21.2114 20.3189 21.1734L21.3322 20.2667C21.3594 20.2276 21.3741 20.1811 21.3741 20.1334C21.3741 20.0857 21.3594 20.0392 21.3322 20.0001L20.6655 18.7467C20.8274 18.4526 20.957 18.142 21.0522 17.8201L22.3855 17.4134C22.436 17.3988 22.4802 17.3681 22.5115 17.326C22.5429 17.2838 22.5595 17.2326 22.5589 17.1801V15.7801C22.565 15.7351 22.5582 15.6893 22.5393 15.6479C22.5205 15.6066 22.4902 15.5715 22.4522 15.5467V15.5467ZM16.5655 18.6667C16.1246 18.668 15.6932 18.5384 15.326 18.2942C14.9588 18.0501 14.6723 17.7024 14.503 17.2953C14.3336 16.8881 14.289 16.4399 14.3747 16.0073C14.4604 15.5748 14.6726 15.1774 14.9844 14.8656C15.2962 14.5538 15.6936 14.3416 16.1261 14.2559C16.5587 14.1702 17.0069 14.2148 17.4141 14.3842C17.8212 14.5535 18.1689 14.84 18.4131 15.2072C18.6572 15.5744 18.7869 16.0058 18.7855 16.4467C18.7838 17.035 18.5493 17.5986 18.1334 18.0146C17.7174 18.4305 17.1538 18.665 16.5655 18.6667V18.6667Z" fill="#404041"/>
</g>
<defs>
<clipPath id="clip0_6640_5666">
<rect width="24" height="24" fill="white"/>
</clipPath>
</defs>
</svg>
