<svg width="24" height="24" viewBox="0 0 24 24" fill="none" xmlns="http://www.w3.org/2000/svg">
<path d="M21.5984 5.09995C21.5984 4.86126 21.5036 4.63234 21.3348 4.46355C21.1661 4.29477 20.9371 4.19995 20.6984 4.19995C20.4597 4.19995 20.2308 4.29477 20.062 4.46355C19.8933 4.63234 19.7984 4.86126 19.7984 5.09995V18.3C19.7984 18.5386 19.8933 18.7676 20.062 18.9363C20.2308 19.1051 20.4597 19.2 20.6984 19.2C20.9371 19.2 21.1661 19.1051 21.3348 18.9363C21.5036 18.7676 21.5984 18.5386 21.5984 18.3V5.09995ZM4.19844 5.09995C4.19844 4.86126 4.10362 4.63234 3.93483 4.46355C3.76605 4.29477 3.53713 4.19995 3.29844 4.19995C3.05974 4.19995 2.83082 4.29477 2.66204 4.46355C2.49326 4.63234 2.39844 4.86126 2.39844 5.09995V18.3C2.39844 18.5386 2.49326 18.7676 2.66204 18.9363C2.83082 19.1051 3.05974 19.2 3.29844 19.2C3.53713 19.2 3.76605 19.1051 3.93483 18.9363C4.10362 18.7676 4.19844 18.5386 4.19844 18.3V5.09995ZM6.26244 12.336L8.66244 14.736C8.83305 14.8949 9.0587 14.9815 9.29186 14.9774C9.52503 14.9732 9.74749 14.8788 9.91238 14.7139C10.0773 14.549 10.1717 14.3265 10.1758 14.0934C10.18 13.8602 10.0934 13.6346 9.93444 13.464L9.07044 12.6H14.9264L14.0624 13.464C13.974 13.5463 13.9031 13.6457 13.8539 13.7561C13.8047 13.8665 13.7783 13.9857 13.7761 14.1065C13.774 14.2274 13.7962 14.3474 13.8415 14.4595C13.8868 14.5715 13.9541 14.6733 14.0396 14.7588C14.1251 14.8443 14.2269 14.9116 14.3389 14.9569C14.451 15.0022 14.571 15.0244 14.6919 15.0223C14.8127 15.0201 14.9319 14.9937 15.0423 14.9445C15.1527 14.8953 15.252 14.8244 15.3344 14.736L17.7344 12.336C17.903 12.1672 17.9976 11.9385 17.9976 11.7C17.9976 11.4615 17.903 11.2327 17.7344 11.064L15.3344 8.66395C15.252 8.57553 15.1527 8.5046 15.0423 8.45541C14.9319 8.40622 14.8127 8.37977 14.6919 8.37764C14.571 8.37551 14.451 8.39774 14.3389 8.443C14.2269 8.48827 14.1251 8.55564 14.0396 8.64111C13.9541 8.72657 13.8868 8.82837 13.8415 8.94043C13.7962 9.0525 13.774 9.17253 13.7761 9.29338C13.7783 9.41422 13.8047 9.5334 13.8539 9.6438C13.9031 9.7542 13.974 9.85356 14.0624 9.93595L14.9264 10.8H9.07044L9.93444 9.93595C10.0934 9.76534 10.18 9.53969 10.1758 9.30652C10.1717 9.07336 10.0773 8.8509 9.91238 8.68601C9.74749 8.52111 9.52503 8.42666 9.29186 8.42254C9.0587 8.41843 8.83305 8.50497 8.66244 8.66395L6.26244 11.064C6.0939 11.2327 5.99923 11.4615 5.99923 11.7C5.99923 11.9385 6.0939 12.1672 6.26244 12.336Z" fill="#404041"/>
</svg>
